<svg width="53" height="56" viewBox="0 0 53 56" fill="none" xmlns="http://www.w3.org/2000/svg">
<path fill-rule="evenodd" clip-rule="evenodd" d="M26.4026 7.575e-07C22.951 -0.00105636 19.5899 1.10435 16.8127 3.15396C14.0355 5.20358 11.9884 8.08946 10.972 11.388C9.9555 14.6866 10.0232 18.2242 11.165 21.4814C12.3069 24.7387 14.4629 27.5442 17.3164 29.4861C12.3639 31.3026 8.0683 34.5596 4.98244 38.8379C1.89657 43.1163 0.161667 48.2202 0.000991415 53.4929C-0.0165217 54.0767 0.198585 54.6435 0.59899 55.0687C0.999396 55.4939 1.5523 55.7426 2.13607 55.7601C2.71984 55.7776 3.28666 55.5625 3.71183 55.1621C4.13701 54.7617 4.38571 54.2088 4.40322 53.625C4.57799 47.9064 6.97253 42.4805 11.0794 38.4972C15.1863 34.5139 20.6828 32.2862 26.4041 32.2862C32.1254 32.2862 37.6219 34.5139 41.7287 38.4972C45.8356 42.4805 48.2302 47.9064 48.4049 53.625C48.4072 53.9181 48.4679 54.2077 48.5836 54.477C48.6993 54.7463 48.8676 54.9898 49.0786 55.1932C49.2896 55.3965 49.5392 55.5557 49.8125 55.6614C50.0859 55.767 50.3776 55.817 50.6706 55.8084C50.9635 55.7998 51.2518 55.7328 51.5185 55.6113C51.7852 55.4898 52.025 55.3162 52.2237 55.1008C52.4225 54.8854 52.5762 54.6325 52.6759 54.3569C52.7756 54.0813 52.8192 53.7886 52.8042 53.4959C52.6441 48.2227 50.9095 43.1181 47.8236 38.8391C44.7377 34.5602 40.4418 31.3028 35.4888 29.4861C38.3424 27.5442 40.4983 24.7387 41.6402 21.4814C42.7821 18.2242 42.8497 14.6866 41.8333 11.388C40.8168 8.08946 38.7697 5.20358 35.9925 3.15396C33.2153 1.10435 29.8543 -0.00105636 26.4026 7.575e-07ZM14.6633 16.1415C14.6633 13.0281 15.9002 10.0421 18.1017 7.84058C20.3032 5.63904 23.2892 4.40223 26.4026 4.40223C29.5161 4.40223 32.502 5.63904 34.7035 7.84058C36.9051 10.0421 38.1419 13.0281 38.1419 16.1415C38.1419 19.2549 36.9051 22.2409 34.7035 24.4424C32.502 26.644 29.5161 27.8808 26.4026 27.8808C23.2892 27.8808 20.3032 26.644 18.1017 24.4424C15.9002 22.2409 14.6633 19.2549 14.6633 16.1415Z" fill="#333333"/>
</svg>
