<svg width="75" height="71" viewBox="0 0 75 71" fill="none" xmlns="http://www.w3.org/2000/svg">
<path d="M12.5 17.75H6.25V59.1666C6.25 62.4208 9.0625 65.0833 12.5 65.0833H56.25V59.1666H12.5V17.75ZM62.5 5.91663H25C21.5625 5.91663 18.75 8.57913 18.75 11.8333V47.3333C18.75 50.5875 21.5625 53.25 25 53.25H62.5C65.9375 53.25 68.75 50.5875 68.75 47.3333V11.8333C68.75 8.57913 65.9375 5.91663 62.5 5.91663ZM62.5 47.3333H25V11.8333H62.5V47.3333ZM40.625 44.375H46.875V32.5416H59.375V26.625H46.875V14.7916H40.625V26.625H28.125V32.5416H40.625V44.375Z" fill="#333333"/>
</svg>
