<svg width="40" height="35" viewBox="0 0 40 35" fill="none" xmlns="http://www.w3.org/2000/svg">
<path d="M27.4969 23.5788L29.6841 21.3916C30.0259 21.0499 30.6205 21.2891 30.6205 21.7812V31.7192C30.6205 33.5305 29.151 35 27.3397 35H3.28077C1.46951 35 0 33.5305 0 31.7192V7.66025C0 5.849 1.46951 4.37949 3.28077 4.37949H21.9743C22.4596 4.37949 22.7057 4.96729 22.3639 5.31587L20.1767 7.50305C20.0742 7.60557 19.9375 7.66025 19.7871 7.66025H3.28077V31.7192H27.3397V23.9616C27.3397 23.818 27.3944 23.6813 27.4969 23.5788ZM38.2005 9.78592L20.2519 27.7345L14.0731 28.418C12.2824 28.6162 10.7582 27.1056 10.9564 25.3012L11.6399 19.1224L29.5884 1.1739C31.1536 -0.3913 33.6826 -0.3913 35.2409 1.1739L38.1936 4.12659C39.7588 5.69179 39.7588 8.22755 38.2005 9.78592ZM31.4475 11.8979L27.4764 7.92682L14.7771 20.633L14.2782 25.0962L18.7414 24.5972L31.4475 11.8979ZM35.8766 6.45047L32.9239 3.49778C32.6437 3.21755 32.1857 3.21755 31.9123 3.49778L29.8003 5.60977L33.7714 9.58087L35.8834 7.46888C36.1568 7.18181 36.1568 6.7307 35.8766 6.45047Z" fill="#4CAF50"/>
</svg>
